. 
  
http://www.torrenting.com/        :     Greatest Movie Tracker on The Net!!!
 
http://www.Torrenting.com          :     Once & For all ;)


               www . Torrenting . Com 

(((((((((((((= Enjoy No RAR releases =))))))))))))))))))))


...................................NFO:....................................

.








































          
          
              
              
                    
                    
                    
                    

Savage.2009.DVDSCR.XviD-SiC.avi

Poster:
[img]http://img89.imageshack.us/img89/3639/savagemovieposter2009pi.jpg[/img]

IMDB Link: 
http://www.imdb.com/title/tt1334473/

Description:
A blazing fire rips its way through Bear Valley National Park. As the firefighters try to contain it, the animals are being forced out of their habitat including a beast that was better left undiscovered.

MediaInfo:
General
Complete name                    : Savage.2009.DVDSCR.XviD-SiC.avi
Format                           : AVI
Format/Info                      : Audio Video Interleave
File size                        : 1.22 GiB
Duration                         : 1h 25mn
Overall bit rate                 : 2 033 Kbps

Video
ID                               : 0
Format                           : MPEG-4 Visual
Format profile                   : Advanced Simple@L5
Format settings, BVOP            : 1
Format settings, QPel            : No
Format settings, GMC             : No warppoints
Format settings, Matrix          : Default (H.263)
Muxing mode                      : Packed bitstream
Codec ID                         : XVID
Codec ID/Hint                    : XviD
Duration                         : 1h 25mn
Bit rate                         : 1 833 Kbps
Width                            : 720 pixels
Height                           : 400 pixels
Display aspect ratio             : 16:9
Frame rate                       : 23.976 fps
Color space                      : YUV
Chroma subsampling               : 4:2:0
Bit depth                        : 8 bits
Scan type                        : Progressive
Compression mode                 : Lossy
Bits/(Pixel*Frame)               : 0.265
Stream size                      : 1.10 GiB (90%)
Writing library                  : XviD 1.2.1 (UTC 2008-12-04)

Audio
ID                               : 1
Format                           : AC-3
Format/Info                      : Audio Coding 3
Mode extension                   : CM (complete main)
Codec ID                         : 2000
Duration                         : 1h 25mn
Bit rate mode                    : Constant
Bit rate                         : 192 Kbps
Channel(s)                       : 2 channels
Channel positions                : Front: L R
Sampling rate                    : 48.0 KHz
Bit depth                        : 16 bits
Compression mode                 : Lossy
Stream size                      : 118 MiB (9%)
Alignment                        : Aligned on interleaves
Interleave, duration             : 64 ms (1.53 video frames)
Interleave, preload duration     : 192 ms
Title                            : VTS_01_1 T80 2_0ch 192Kbps DELAY 32ms



Screenshots:
[img]http://img69.imageshack.us/img69/3126/vlcsnap2011082216h18m35.png[/img]
[img]http://img42.imageshack.us/img42/4707/vlcsnap2011082216h18m42.png[/img]
[img]http://img192.imageshack.us/img192/9154/vlcsnap2011082216h18m53.png[/img]
[img]http://img225.imageshack.us/img225/7019/vlcsnap2011082216h19m11.png[/img]
[img]http://img851.imageshack.us/img851/2426/vlcsnap2011082216h19m27.png[/img]

Note: N/A

Encoder: thefuzz

Enjoy!

Respects to CaptainHomey, Cyanide, CM8, Rx, THC, ELEKTRI4KA, 
Killerhz, PA, YeFsTe, BoxSlots, MrRep and everyone in the struggle...